<svg width="32" height="32" viewBox="0 0 32 32" fill="none" xmlns="http://www.w3.org/2000/svg">
<path fill-rule="evenodd" clip-rule="evenodd" d="M0 16C0 7.16344 7.16344 0 16 0C24.8366 0 32 7.16344 32 16C32 24.8366 24.8366 32 16 32C7.16344 32 0 24.8366 0 16ZM13.1896 19.8016C13.1896 22.7646 14.9774 24 17.3879 24H20.0596V20.8562H18.6434C17.6491 20.8562 17.0264 20.4244 17.0264 19.189V15.0609H19.9391V12.0778H17.0264V8H14.5255C14.4149 9.79787 13.4105 11.8669 11 12.4896V15.0609H13.1896V19.8016Z" fill="white"/>
</svg>
