<?xml version="1.0" standalone="no"?>
<!DOCTYPE svg PUBLIC "-//W3C//DTD SVG 20010904//EN"
 "http://www.w3.org/TR/2001/REC-SVG-20010904/DTD/svg10.dtd">
<svg version="1.0" xmlns="http://www.w3.org/2000/svg"
 width="500.000000pt" height="500.000000pt" viewBox="0 0 500.000000 500.000000"
 preserveAspectRatio="xMidYMid meet">
<metadata>
Created by potrace 1.14, written by Peter Selinger 2001-2017
</metadata>
<g transform="translate(0.000000,500.000000) scale(0.100000,-0.100000)"
fill="#000000" stroke="none">
<path d="M1085 4463 c0 -105 -3 -122 -22 -153 -15 -23 -23 -51 -23 -79 0 -55
-27 -167 -49 -201 -8 -14 -30 -45 -49 -70 -31 -41 -33 -48 -27 -95 6 -43 13
-56 55 -95 54 -50 75 -94 43 -88 -17 3 -18 -13 -19 -335 l-2 -337 23 -6 c13
-3 34 -4 46 -2 23 3 24 6 24 91 0 104 12 112 51 35 15 -29 44 -72 65 -95 44
-48 47 -64 19 -100 -12 -16 -20 -41 -20 -64 l0 -38 52 -3 c45 -3 54 -7 69 -33
55 -92 56 -94 54 -225 -2 -69 -4 -129 -5 -135 -5 -21 1 -35 15 -35 8 0 15 6
15 12 0 7 7 2 16 -10 20 -29 58 -48 114 -56 53 -8 70 -21 70 -51 0 -27 -16
-42 -50 -47 -32 -4 -38 -38 -10 -63 15 -14 20 -30 20 -71 0 -40 8 -69 36 -123
20 -39 40 -74 46 -77 5 -3 18 -26 29 -50 10 -25 52 -83 94 -129 67 -76 75 -89
75 -125 0 -51 15 -80 41 -80 27 0 35 -27 15 -49 -17 -18 -20 -104 -7 -166 10
-49 68 -75 169 -75 63 0 92 -5 122 -20 22 -11 44 -20 51 -20 6 0 27 -14 46
-30 21 -19 45 -30 63 -30 23 0 35 -9 59 -44 46 -66 73 -83 144 -91 76 -9 87
-17 87 -64 0 -53 13 -61 80 -54 l57 6 34 -43 c18 -23 48 -48 66 -55 27 -11 33
-20 33 -44 0 -24 9 -36 45 -61 25 -17 50 -40 56 -52 6 -11 14 -67 17 -124 4
-95 6 -103 26 -106 13 -2 22 -12 24 -27 3 -21 7 -23 45 -17 23 4 116 10 207
16 91 5 262 14 380 21 l215 13 37 30 c45 37 47 57 11 105 -22 29 -28 49 -31
101 -4 59 -2 67 22 89 24 23 26 31 26 111 0 79 2 88 25 110 14 13 25 32 25 41
0 10 13 28 30 41 20 14 30 30 30 48 0 44 -46 164 -86 228 -35 53 -380 421
-845 897 -158 163 -165 172 -165 210 1 36 -10 147 -18 193 -2 9 -6 38 -10 63
-5 35 -12 48 -26 52 -26 7 -28 2 -35 -69 -3 -32 -7 -68 -10 -79 -2 -11 -4 -36
-4 -54 l-1 -35 -34 33 c-33 32 -34 35 -29 90 8 81 -12 111 -73 111 -33 0 -42
-3 -38 -14 18 -47 -32 -6 -171 139 l-157 165 -3 328 c-1 180 -3 329 -4 332 0
3 -20 5 -43 5 l-43 0 0 -282 0 -282 -28 27 c-29 27 -29 28 -23 117 4 50 11
133 16 185 12 120 37 390 50 540 6 63 15 160 20 215 5 55 11 129 12 165 l3 65
-60 7 c-64 8 -430 50 -810 93 -126 14 -260 30 -297 35 -37 6 -73 10 -80 10
-10 0 -13 -27 -13 -117z m1705 -1827 l-1 -31 -18 23 c-16 19 -18 29 -12 61 1
2 8 -2 16 -9 8 -7 15 -27 15 -44z m159 -72 c1 -31 -2 -45 -9 -42 -6 2 -11 7
-11 11 1 4 1 23 1 42 0 52 16 42 19 -11z m11 -114 c0 -11 -2 -20 -3 -20 -2 0
-12 9 -22 20 -18 19 -17 20 3 20 15 0 22 -6 22 -20z"/>
<path d="M600 3690 c-7 -4 -14 -21 -16 -36 -9 -66 -13 -620 -5 -633 5 -7 28
-15 51 -17 l42 -4 -7 87 c-4 49 -10 92 -13 97 -7 13 -6 295 2 303 3 3 6 -7 7
-23 0 -16 2 -36 3 -44 2 -8 6 -46 10 -85 5 -38 10 -86 12 -105 2 -19 6 -60 9
-90 6 -68 18 -115 31 -115 5 0 14 -4 21 -8 16 -10 19 -2 29 68 8 61 10 73 14
78 3 4 10 41 15 87 24 223 32 216 31 -25 l-1 -220 25 -3 c47 -4 54 9 56 110 0
51 -3 105 -7 120 -4 15 -4 30 0 32 3 2 6 92 5 200 0 144 -4 199 -14 211 -7 8
-15 13 -18 10 -3 -3 -11 0 -18 6 -30 25 -58 -11 -70 -90 -8 -54 -12 -79 -24
-140 -18 -95 -20 -102 -29 -97 -7 5 -13 42 -26 161 -6 57 -35 169 -41 162 -3
-3 -18 -2 -33 3 -16 4 -34 4 -41 0z"/>
<path d="M2599 3695 c-3 -3 -32 -6 -65 -7 -32 -1 -62 -6 -65 -11 -3 -4 -5
-144 -3 -310 2 -166 4 -317 4 -334 0 -32 1 -33 40 -31 l39 1 0 144 c0 80 2
147 5 151 5 5 23 8 61 11 13 1 13 91 0 92 -5 1 -23 2 -40 3 l-30 1 0 95 0 95
50 1 c28 1 52 2 55 3 5 1 6 54 1 85 0 4 -10 6 -21 3 -10 -3 -20 -1 -22 5 -2 5
-6 7 -9 3z"/>
<path d="M3355 3359 c2 -187 5 -343 8 -345 11 -12 70 -6 78 7 10 15 13 77 10
180 -4 125 13 95 75 -133 l18 -67 38 1 38 0 -5 287 c-2 157 -4 310 -5 339 0
58 -15 72 -70 64 l-28 -4 5 -87 c9 -137 9 -191 -1 -191 -6 0 -11 5 -12 12 -2
7 -10 40 -19 73 -8 33 -18 71 -21 84 -3 13 -9 32 -15 43 -5 10 -8 18 -5 18 3
0 0 14 -5 30 -10 26 -16 30 -49 30 l-38 0 3 -341z"/>
<path d="M2800 3683 c-22 -9 -49 -39 -62 -70 -16 -39 -19 -475 -4 -528 19 -66
94 -103 149 -73 58 31 69 81 72 329 2 219 -7 285 -42 321 -20 20 -86 32 -113
21z m60 -93 c12 -7 14 -46 14 -227 0 -120 -4 -231 -8 -246 -8 -33 -43 -37 -54
-6 -10 25 -8 436 2 467 8 23 22 27 46 12z"/>
<path d="M3043 3676 c-12 -19 -11 -655 1 -664 6 -4 23 -9 38 -11 29 -2 41 19
37 64 -1 11 -1 66 -1 123 2 82 5 102 17 102 9 0 16 -14 20 -37 4 -21 9 -51 13
-68 3 -16 6 -37 7 -45 8 -108 26 -142 71 -136 22 3 26 44 12 123 -29 161 -29
200 -5 246 31 59 29 190 -3 244 -22 37 -40 54 -70 61 -33 8 -132 7 -137 -2z
m131 -102 c9 -8 16 -27 17 -42 3 -92 -15 -142 -51 -142 -22 0 -23 1 -19 85 1
33 2 72 2 88 -1 31 25 37 51 11z"/>
<path d="M3690 3680 c-7 -4 -8 -608 -1 -668 1 -9 14 -12 44 -10 l42 3 0 325
c0 179 -1 332 -3 341 -3 12 -14 16 -39 15 -19 0 -39 -3 -43 -6z"/>
<path d="M3939 3678 c-1 -15 -4 -41 -13 -113 -4 -27 -9 -72 -12 -100 -2 -27
-6 -63 -9 -80 -20 -144 -41 -322 -40 -350 0 -27 4 -30 33 -32 34 -1 43 14 47
82 1 17 3 38 4 47 1 13 9 16 35 15 19 -2 37 -5 40 -8 3 -2 6 -28 7 -58 3 -69
29 -96 68 -72 10 7 12 27 7 91 -3 45 -8 92 -11 103 -5 25 -13 89 -21 167 -13
120 -40 296 -49 310 -8 13 -85 11 -86 -2z m58 -210 c0 -13 4 -61 8 -106 4 -46
8 -91 9 -100 1 -11 -7 -16 -24 -17 -28 0 -27 -12 -15 140 6 80 11 105 19 105
1 0 2 -10 3 -22z"/>
<path d="M601 2718 c-4 -13 -7 -88 -7 -167 1 -143 1 -144 24 -148 23 -3 23 -2
17 59 -8 76 -8 63 -6 122 2 72 8 53 15 -44 9 -106 14 -130 32 -130 8 0 14 10
15 23 0 12 3 31 5 42 2 11 7 40 10 65 10 73 14 60 14 -44 0 -87 2 -97 18 -94
15 3 17 19 18 165 0 155 0 162 -20 167 -23 6 -35 -8 -37 -41 -1 -13 -2 -26 -3
-30 -1 -5 -5 -25 -9 -45 -8 -41 -25 -52 -22 -16 3 36 -16 122 -28 130 -19 12
-27 9 -36 -14z"/>
<path d="M804 2731 c-2 -2 -4 -78 -4 -168 l0 -163 50 0 c46 0 50 2 50 23 0 19
-5 23 -27 23 -27 -1 -28 1 -31 54 -2 30 0 52 4 48 3 -4 15 -3 25 3 15 8 17 14
9 29 -6 11 -17 20 -24 20 -8 0 -13 15 -13 45 -1 43 0 45 28 45 23 0 29 4 29
23 0 20 -5 22 -46 22 -25 0 -48 -2 -50 -4z"/>
<path d="M940 2730 c0 -4 11 -40 24 -80 l23 -72 -19 -62 c-40 -125 -39 -118
-15 -114 16 2 26 15 37 51 l15 48 22 -50 c16 -38 27 -51 42 -51 26 0 26 -1 -7
95 l-28 79 27 77 27 77 -23 4 c-19 4 -26 -2 -40 -36 l-17 -41 -11 32 c-7 17
-16 35 -20 39 -11 11 -37 14 -37 4z"/>
<path d="M1237 2727 c-28 -21 -36 -61 -35 -178 2 -123 12 -149 61 -149 33 0
55 28 63 78 6 38 5 42 -15 42 -11 0 -22 -7 -22 -15 -1 -8 -2 -25 -3 -37 -1
-16 -7 -23 -21 -23 -19 0 -20 7 -22 117 -1 89 2 120 12 128 20 17 35 3 35 -31
0 -22 5 -29 20 -29 16 0 20 7 20 33 0 18 -6 41 -13 50 -16 23 -59 30 -80 14z"/>
<path d="M3023 2578 c1 -90 6 -166 11 -170 24 -16 36 6 36 66 1 68 10 62 31
-21 10 -40 17 -53 31 -53 18 0 19 10 16 167 -3 164 -3 166 -26 168 -21 2 -22
-1 -18 -67 3 -41 1 -66 -5 -63 -5 4 -9 11 -9 17 0 5 -7 34 -16 64 -12 41 -20
54 -34 54 -18 0 -19 -10 -17 -162z"/>
<path d="M3198 2732 c-23 -4 -23 -38 -1 -50 14 -8 16 -28 15 -140 -2 -124 -1
-131 19 -137 11 -4 23 -5 25 -2 3 2 6 67 7 143 2 126 4 139 20 138 9 -1 17 1
18 5 0 3 2 14 4 24 2 9 0 18 -3 18 -19 4 -89 4 -104 1z"/>
<path d="M3496 2732 c-2 -4 -7 -36 -11 -72 -4 -36 -9 -74 -11 -85 -2 -11 -7
-55 -10 -97 -5 -67 -3 -78 10 -78 9 0 16 3 17 8 2 21 10 56 14 60 13 13 35
-11 35 -38 0 -25 4 -31 18 -28 19 4 21 39 8 133 -3 28 -8 66 -11 85 -11 90
-17 108 -36 113 -10 3 -21 2 -23 -1z m29 -102 c3 -5 1 -10 -4 -10 -6 0 -11 5
-11 10 0 6 2 10 4 10 3 0 8 -4 11 -10z m2 -71 c4 -29 2 -40 -7 -37 -6 2 -11 7
-11 11 1 4 1 24 1 44 0 47 11 36 17 -18z"/>
<path d="M3603 2576 c2 -163 6 -185 35 -167 6 3 12 33 14 66 l3 60 20 -65 c14
-44 26 -66 38 -68 16 -3 18 9 17 162 -1 91 -5 166 -8 167 -4 0 -15 2 -24 4
-16 3 -17 -5 -14 -66 2 -38 0 -69 -4 -69 -6 0 -33 97 -34 125 -1 6 -11 11 -22
13 -22 3 -22 1 -21 -162z"/>
<path d="M3768 2728 c-2 -7 -4 -83 -3 -168 l0 -155 36 -3 c26 -2 40 3 54 18
17 19 20 37 20 150 0 107 -3 131 -17 147 -20 22 -84 30 -90 11z m64 -50 c4
-11 3 -179 -1 -214 0 -7 -7 -14 -14 -17 -11 -4 -14 19 -14 119 1 89 4 124 13
124 6 0 14 -6 16 -12z"/>
<path d="M4039 2732 c-13 -2 -16 -27 -18 -167 l-2 -165 40 0 c32 0 44 5 57 25
21 33 24 81 7 124 -10 26 -10 37 -1 48 16 19 11 93 -8 114 -16 18 -48 27 -75
21z m50 -64 c10 -29 2 -68 -15 -68 -10 0 -14 13 -14 45 0 47 15 60 29 23z m3
-143 c7 -35 -2 -73 -18 -79 -11 -4 -14 7 -14 49 0 40 4 55 14 55 7 0 16 -11
18 -25z"/>
<path d="M4216 2732 c-2 -4 -6 -34 -10 -67 -3 -33 -8 -71 -11 -85 -2 -14 -7
-48 -9 -75 -2 -28 -5 -54 -6 -60 -6 -25 1 -45 15 -45 8 0 16 5 16 10 1 6 3 15
4 20 1 6 3 17 4 26 2 28 35 11 41 -21 3 -18 11 -30 20 -30 17 0 20 45 9 105
-4 19 -10 62 -13 95 -10 101 -17 123 -37 128 -10 3 -21 2 -23 -1z m32 -167 c2
-31 -2 -45 -10 -45 -9 0 -12 13 -10 45 2 25 7 45 11 45 4 0 9 -20 9 -45z"/>
<path d="M4341 2726 c-4 -6 -8 -80 -9 -164 0 -128 2 -154 15 -159 22 -9 29 9
27 77 -1 33 2 60 7 60 5 0 9 -6 10 -12 0 -7 2 -22 5 -33 2 -11 5 -33 7 -48 4
-33 21 -52 36 -43 7 4 8 21 4 44 -8 46 -8 111 2 178 9 66 -10 100 -61 106 -19
2 -38 -1 -43 -6z m69 -81 c0 -33 -10 -55 -25 -55 -9 0 -12 14 -10 48 2 26 3
49 4 51 4 13 31 -26 31 -44z"/>
<path d="M1122 2568 c3 -157 4 -163 24 -166 20 -3 21 0 22 163 l1 165 -25 0
-25 0 3 -162z"/>
</g>
</svg>
