<svg width="32" height="32" viewBox="0 0 32 32" fill="none" xmlns="http://www.w3.org/2000/svg">
<path d="M12 14.3088L16 11.7624L20 14.3088L16 16.8553L12 14.3088Z" fill="black"/>
<path fill-rule="evenodd" clip-rule="evenodd" d="M16 32C7.16345 32 0 24.8365 0 16C0 7.16344 7.16345 0 16 0C24.8365 0 32 7.16344 32 16C32 24.8365 24.8365 32 16 32ZM12 14.3088L8 11.7624L12 9.216L16 11.7624L20 9.216L24 11.7624L20 14.3088L24 16.8553L20 19.4017L16 16.8553L12 19.4017L8 16.8553L12 14.3088ZM15.9894 17.7041L11.9894 20.2505L15.9894 22.7969L19.9894 20.2505L15.9894 17.7041Z" fill="black"/>
</svg>
