<svg width="32" height="32" viewBox="0 0 32 32" fill="none" xmlns="http://www.w3.org/2000/svg">
<path fill-rule="evenodd" clip-rule="evenodd" d="M16 32C7.16345 32 0 24.8365 0 16C0 7.16344 7.16345 0 16 0C24.8365 0 32 7.16344 32 16C32 24.8365 24.8365 32 16 32ZM8.70001 13.7L8 12.8C8 12.8 10.7 9.60001 12.8 9.2C14.5443 8.80356 14.9056 11.1104 15.2297 13.1796C15.3143 13.7201 15.3965 14.2444 15.5 14.7C16 16.7 16.4 17.9 16.8 17.9C17.2 17.9 18.1 16.7 19 15C20 13.2 19 11.7 17.3 12.8C18 8.40001 24.9 7.40001 24 12.4C23.1 17.5 18.1 21.7 16.6 22.7C15.1 23.7 13.7 22.3 13.2 21.3C12.9898 20.7955 12.5499 19.3721 12.0808 17.8544C11.4341 15.7617 10.7318 13.4898 10.5 13.2C10 12.6 8.70001 13.7 8.70001 13.7Z" fill="black"/>
</svg>
